<svg xmlns="http://www.w3.org/2000/svg" class="ionicon" viewBox="0 0 512 512">
  <path d="M464 256c0-114.87-93.13-208-208-208S48 141.13 48 256s93.13 208 208 208 208-93.13 208-208z" fill="" stroke="#7af4c5" stroke-miterlimit="10" stroke-width="32"/>
  <path d="M445.57 172.14c-16.06.1-14.48 29.73-34.49 15.75-7.43-5.18-12-12.71-21.33-15-8.15-2-16.5.08-24.55 1.47-9.15 1.58-20 2.29-26.94 9.22-6.71 6.67-10.26 15.62-17.4 22.33-13.81 13-19.64 27.19-10.7 45.57 8.6 17.67 26.59 27.26 46 26 19.07-1.27 38.88-12.33 38.33 15.38-.2 9.8 1.85 16.6 4.86 25.71 2.79 8.4 2.6 16.54 3.24 25.21 1.18 16.2 4.16 34.36 12.2 48.67l15-21.16c1.85-2.62 5.72-6.29 6.64-9.38 1.63-5.47-1.58-14.87-1.95-21s-.19-12.34-1.13-18.47c-1.32-8.59-6.4-16.64-7.1-25.13-1.29-15.81 1.6-28.43-10.58-41.65-11.76-12.75-29-15.81-45.47-13.22-8.3 1.3-41.71 6.64-28.3-12.33 2.65-3.73 7.28-6.79 10.26-10.34 2.59-3.09 4.84-8.77 7.88-11.18s17-5.18 21-3.95 8.17 7 11.64 9.56a49.89 49.89 0 0021.81 9.36c13.66 2 42.22-5.94 42-23.46-.04-8.4-7.84-20.1-10.92-27.96z" fill="#7af4c5" stroke="#7af4c5"/>
</svg>
